<svg xmlns="http://www.w3.org/2000/svg" xmlns:xlink="http://www.w3.org/1999/xlink" width="375" height="812" viewBox="0 0 375 812"><defs><style>.a,.c{fill:#fff;}.a{stroke:#707070;}.b{clip-path:url(#a);}.d{fill:#88af7b;}.e,.g,.h,.i,.j,.k{fill:none;}.e,.g,.h,.i,.j{stroke:#705048;stroke-miterlimit:10;}.e{stroke-width:1.571px;}.f{fill:#ffc297;}.g{stroke-width:1.52px;}.h{stroke-width:1.671px;}.i{stroke-width:0.957px;}.j{stroke-width:0.638px;}.l{fill:#000839;opacity:0.304;}</style><clipPath id="a"><rect class="a" width="375" height="812" transform="translate(0.5 0.5)"/></clipPath></defs><g class="b" transform="translate(-0.5 -0.5)"><path class="c" d="M258.785,2.462c6.268-3.31,12.209-7.451,19.036-9.355,10.83-3.02,22.824.154,31.832,6.881s15.24,16.67,19.083,27.236c2.374,6.526,3.991,13.509,8.139,19.078,9.1,12.214,26.438,13.447,41.29,16.811,2.8.634,5.748,1.487,7.612,3.666,2.885,3.371,1.957,8.8-.894,12.2s-7.109,5.237-11.238,6.861a295.548,295.548,0,0,1-87.9,19.78c-18.249,1.243-37.354.607-53.631-7.736s-28.86-26.182-26.024-44.252c1.334-8.5,6.4-33.095,12.534-39.1C226.1,7.207,248.343,7.976,258.785,2.462Z" transform="translate(-93.868 1.078)"/><path class="d" d="M325.287,112.676q2.093,2.54,4.331,4.963c33.76,36.531,95.518,53.63,135.824,19.684,30.968-26.081,44.3-71.425,31.94-109.98C477.711-34.017,394.425-66.73,336.3-42.735c-10.718,4.425-20.852,11.1-27.276,20.756-3.922,5.893-6.321,12.669-8.141,19.51C290.409,36.917,299.434,81.291,325.287,112.676Z" transform="translate(-93.868 1.078)"/><g transform="translate(-93.868 1.078)"><path class="c" d="M310.11,212.085a1.768,1.768,0,0,0,3.505-.458,1.768,1.768,0,0,0-3.505.458Z"/><path class="c" d="M318.778,205.674a1.768,1.768,0,0,0,3.5-.458,1.768,1.768,0,0,0-3.5.458Z"/><path class="c" d="M306.814,203.011a1.768,1.768,0,0,0,3.505-.457,1.768,1.768,0,0,0-3.505.457Z"/><path class="c" d="M316.385,195.426a1.768,1.768,0,0,0,3.5-.457,1.768,1.768,0,0,0-3.5.457Z"/><path class="c" d="M332.14,202.874a1.768,1.768,0,0,0,3.5-.457,1.768,1.768,0,0,0-3.5.457Z"/><path class="c" d="M326.757,196.515l-1.039.135a1.768,1.768,0,0,0,.458,3.5l1.038-.135a1.768,1.768,0,0,0-.457-3.5Z"/><path class="c" d="M310.7,200.392a1.768,1.768,0,0,0,3.5-.457,1.768,1.768,0,0,0-3.5.457Z"/><path class="c" d="M306.5,192.492a1.768,1.768,0,0,0,3.5-.457,1.768,1.768,0,0,0-3.5.457Z"/><path class="c" d="M316.068,184.907a1.768,1.768,0,0,0,3.505-.457,1.768,1.768,0,0,0-3.505.457Z"/><path class="c" d="M320.222,208.653a1.768,1.768,0,0,0,3.505-.457,1.768,1.768,0,0,0-3.505.457Z"/><path class="c" d="M314.309,219.985a1.768,1.768,0,0,0,3.5-.457,1.768,1.768,0,0,0-3.5.457Z"/><path class="c" d="M329.884,217.953a1.768,1.768,0,0,0,3.5-.458,1.768,1.768,0,0,0-3.5.458Z"/><path class="c" d="M326.588,208.879a1.768,1.768,0,0,0,3.5-.457,1.768,1.768,0,0,0-3.5.457Z"/><path class="c" d="M342.208,215.289a1.768,1.768,0,0,0,3.505-.458,1.768,1.768,0,0,0-3.505.458Z"/><path class="c" d="M326.318,231.09a1.768,1.768,0,0,0,3.5-.457,1.768,1.768,0,0,0-3.5.457Z"/><path class="c" d="M315.979,216.6a1.768,1.768,0,0,0,3.505-.457,1.768,1.768,0,0,0-3.505.457Z"/><path class="c" d="M313.181,227.524a1.768,1.768,0,0,0,3.5-.457,1.768,1.768,0,0,0-3.5.457Z"/><path class="c" d="M337.015,191.678a1.768,1.768,0,0,0,3.5-.457,1.768,1.768,0,0,0-3.5.457Z"/><path class="c" d="M352.636,198.088a1.768,1.768,0,0,0,3.5-.457,1.768,1.768,0,0,0-3.5.457Z"/><path class="c" d="M304.2,174.841a1.768,1.768,0,0,0,3.5-.458,1.768,1.768,0,0,0-3.5.458Z"/><path class="c" d="M289.748,169.334a1.768,1.768,0,0,0,3.505-.458,1.768,1.768,0,0,0-3.505.458Z"/><path class="c" d="M294.623,158.137a1.768,1.768,0,0,0,3.505-.457,1.768,1.768,0,0,0-3.505.457Z"/><path class="c" d="M288.167,141.028a1.768,1.768,0,0,0,3.5-.457,1.768,1.768,0,0,0-3.5.457Z"/><path class="c" d="M281.621,131.322a1.768,1.768,0,0,0,3.5-.457,1.768,1.768,0,0,0-3.5.457Z"/><path class="c" d="M266,124.912a1.768,1.768,0,0,0,3.505-.457,1.768,1.768,0,0,0-3.505.457Z"/><path class="c" d="M252.231,124.6a1.768,1.768,0,0,0,3.5-.457,1.768,1.768,0,0,0-3.5.457Z"/><path class="c" d="M248.891,131.369a1.768,1.768,0,0,0,3.5-.458,1.768,1.768,0,0,0-3.5.458Z"/><path class="c" d="M264.048,128.665l-1.038.135a1.768,1.768,0,0,0,.457,3.5l1.038-.136a1.768,1.768,0,0,0-.457-3.5Z"/><path class="c" d="M271.508,134.754a1.768,1.768,0,0,0,3.505-.458,1.768,1.768,0,0,0-3.505.458Z"/><path class="c" d="M276.745,142.518a1.768,1.768,0,0,0,3.505-.457,1.768,1.768,0,0,0-3.505.457Z"/><path class="c" d="M276.566,157.326a1.768,1.768,0,0,0,3.5-.458,1.768,1.768,0,0,0-3.5.458Z"/><path class="c" d="M284.059,150.012a1.768,1.768,0,0,0,3.5-.457,1.768,1.768,0,0,0-3.5.457Z"/><path class="c" d="M285.459,144.549a1.768,1.768,0,0,0,3.5-.457,1.768,1.768,0,0,0-3.5.457Z"/><path class="c" d="M273.391,150.144l-1.174-.9a1.768,1.768,0,0,0-2.155,2.8l1.174.9a1.768,1.768,0,0,0,2.155-2.8Z"/><path class="c" d="M263.744,139.991l.135,1.038a1.768,1.768,0,0,0,3.505-.457q-.069-.519-.136-1.039a1.768,1.768,0,0,0-3.5.458Z"/><path class="c" d="M253.846,139.5l-1.039.135a1.768,1.768,0,0,0,.458,3.505L254.3,143a1.768,1.768,0,0,0-.457-3.5Z"/><path class="c" d="M244.377,137.238a1.768,1.768,0,0,0,3.5-.458,1.768,1.768,0,0,0-3.5.458Z"/><path class="c" d="M262.661,155.972a1.768,1.768,0,0,0,3.5-.457,1.768,1.768,0,0,0-3.5.457Z"/><path class="c" d="M285.414,160.4a1.768,1.768,0,0,0,3.5-.457,1.768,1.768,0,0,0-3.5.457Z"/><path class="c" d="M287.354,179.354l1.173.9a1.768,1.768,0,0,0,2.155-2.8l-1.174-.9a1.768,1.768,0,0,0-2.154,2.8Z"/><path class="c" d="M297.919,167.211a1.768,1.768,0,0,0,3.505-.457,1.768,1.768,0,0,0-3.505.457Z"/><path class="c" d="M294.4,188.791a1.768,1.768,0,0,0,3.5-.458,1.768,1.768,0,0,0-3.5.458Z"/><path class="c" d="M302.164,183.554a1.768,1.768,0,0,0,3.5-.458,1.768,1.768,0,0,0-3.5.458Z"/><path class="c" d="M322.434,185.133a1.768,1.768,0,0,0,3.5-.457,1.768,1.768,0,0,0-3.5.457Z"/><path class="c" d="M298.779,206.171a1.768,1.768,0,0,0,3.5-.457,1.768,1.768,0,0,0-3.5.457Z"/><path class="c" d="M300.133,216.554a1.768,1.768,0,0,0,3.505-.457,1.768,1.768,0,0,0-3.505.457Z"/><path class="c" d="M337.6,204.274a1.768,1.768,0,0,0,3.5-.458,1.768,1.768,0,0,0-3.5.458Z"/><path class="c" d="M343.787,195.019a1.768,1.768,0,0,0,3.505-.458,1.768,1.768,0,0,0-3.505.458Z"/><path class="c" d="M347.625,208.246a1.768,1.768,0,0,0,3.505-.457,1.768,1.768,0,0,0-3.505.457Z"/><path class="c" d="M354.352,227.432a1.768,1.768,0,0,0,3.505-.457,1.768,1.768,0,0,0-3.505.457Z"/><path class="c" d="M334.895,232.083a1.768,1.768,0,0,0,3.505-.458,1.768,1.768,0,0,0-3.505.458Z"/><path class="c" d="M350.651,239.531a1.768,1.768,0,0,0,3.5-.457,1.768,1.768,0,0,0-3.5.457Z"/><path class="c" d="M364.329,222.962a1.768,1.768,0,0,0,3.505-.457,1.768,1.768,0,0,0-3.505.457Z"/><path class="c" d="M360.492,209.735a1.768,1.768,0,0,0,3.5-.457,1.768,1.768,0,0,0-3.5.457Z"/><path class="c" d="M339.274,225.175a1.768,1.768,0,0,0,3.5-.457,1.768,1.768,0,0,0-3.5.457Z"/><path class="c" d="M329.929,226.4a1.768,1.768,0,0,0,3.505-.458,1.768,1.768,0,0,0-3.505.458Z"/><path class="c" d="M355.074,216.778q.069.519.136,1.038a1.768,1.768,0,0,0,3.5-.457l-.135-1.038a1.768,1.768,0,0,0-3.505.457Z"/><path class="c" d="M364.646,233.481a1.768,1.768,0,0,0,3.5-.457,1.768,1.768,0,0,0-3.5.457Z"/><path class="c" d="M381.259,231.313a1.768,1.768,0,0,0,3.5-.457,1.768,1.768,0,0,0-3.5.457Z"/><path class="c" d="M375.209,217.319l.135,1.038a1.768,1.768,0,0,0,3.505-.457c-.045-.346-.091-.692-.136-1.039a1.768,1.768,0,0,0-3.5.458Z"/><path class="c" d="M367.942,242.555a1.768,1.768,0,0,0,3.5-.457,1.768,1.768,0,0,0-3.5.457Z"/><path class="c" d="M360.944,245.58a1.768,1.768,0,0,0,3.505-.457,1.768,1.768,0,0,0-3.505.457Z"/><path class="c" d="M320.311,176.962a1.768,1.768,0,0,0,3.505-.458,1.768,1.768,0,0,0-3.505.458Z"/><path class="c" d="M304.375,160.033a1.768,1.768,0,0,0,3.5-.457,1.768,1.768,0,0,0-3.5.457Z"/><path class="c" d="M298.731,149.154a1.768,1.768,0,0,0,3.505-.458,1.768,1.768,0,0,0-3.505.458Z"/></g><path class="e" d="M181.952,30.664a82.48,82.48,0,0,0,41.511,13.3c14.987.615,31.379-2.558,43.966,5.6,14.745,9.555,17.028,29.618,21.857,46.512,9.617,33.648,36.585,62.856,70.606,71.058,20.429,4.926,41.939,2.36,62.445-2.237,6.039-1.353,12.227-2.89,18.345-1.96,13.056,1.985,21.862,14.426,26.87,26.646" transform="translate(-83.868 8.078)"/><path class="f" d="M126.835,730.821q.57-.072,1.138-.152c27.471-3.837,50.1-28.225,69.428-46.349,5.388-4.8,11.211-9.809,18.349-10.863,7.524-1.112,15.083,2.515,20.717,7.623s9.762,11.619,14.267,17.747c7.263,9.876,15.913,19.119,26.9,24.558,8.307,4.113,17.639,5.9,25.813,10.27s15.441,12.638,14.4,21.849c-.786,6.951-6.227,12.683-12.531,15.714s-13.418,3.823-20.382,4.479c-72.786,6.855-146.1,3.593-219.137.325-14.209-.636-28.514-1.285-42.362-4.529C-3.307,765.228,35.411,741.26,45,737.657c13.452-5.054,28.01-6.515,42.38-6.475C100.546,731.218,113.786,732.47,126.835,730.821Z" transform="translate(-31.868 43.078)"/><path class="g" d="M214.937,828.554a79.845,79.845,0,0,0-38.174-17.962c-14.307-2.467-30.437-1.474-41.5-10.879-12.954-11.016-12.633-30.558-15.152-47.376-5.016-33.5-27.241-64.908-58.865-77.04-18.991-7.286-39.956-7.516-60.212-5.673-5.965.543-12.1,1.243-17.852-.416-12.283-3.54-19.176-16.582-22.452-28.938" transform="translate(-31.868 43.078)"/><path class="c" d="M347.592,633.835c-3.313,8.339-4.535,17.371-7.549,25.823s-8.428,16.772-16.848,19.876c-17.112,6.307-35.888-11.606-53.289-6.145-8.335,2.615-14.141,10.039-18.912,17.357-8.147,12.5-14.978,26.119-17.725,40.784s-1.106,30.519,6.684,43.244c7.486,12.229,19.954,20.643,33.014,26.561,26.336,11.934,57.03,14.945,84.584,6.179s51.427-29.773,61.623-56.83c6.209-16.478,7.328-34.388,7.808-51.991.835-30.633-.736-63.684-18.474-89.878C391.932,584.338,355.538,613.834,347.592,633.835Z" transform="translate(-31.868 43.078)"/><path class="h" d="M319.913,629.169c-12.278-6.083-31.842-.728-31.712,12.973.107,11.281,13.4,18.736,14.549,29.959,1.1,10.766-10.62,19.609-21.408,18.749s-19.838-8.681-26.094-17.512-10.529-18.943-16.805-27.76c-5.154-7.241-14.159-14.079-22.221-10.34-3.079,1.429-5.333,4.189-7.116,7.077a42.389,42.389,0,0,0,.813,44.767c12.211,18.261,37.669,25.308,47.255,45.072,9.992,20.6-1.65,45.231,1.639,67.89,4.755,32.757,42.732,53.795,75.121,46.964s57.015-35.382,67.072-66.919c7.783-24.4,17.525-93.761-3.883-114.22-8.791-8.4-21.627-3.454-32.462-5.95C345.451,655.492,336.791,637.53,319.913,629.169Z" transform="translate(-31.868 43.078)"/><g transform="matrix(0.914, 0.407, -0.407, 0.914, 224.495, -86.642)"><path class="i" d="M129.834,759.644c4.434,3.352,8.919,6.733,14,8.98,21.864,9.661,49-3.639,70.593,6.617,8.73,4.147,15.89,11.929,25.416,13.557-5.718.666-10.583,4.274-15.7,6.9a49.526,49.526,0,0,1-43.734.383c-11.069-5.438-19.615-14.808-27.881-23.961"/><path class="j" d="M153.242,771.911c12.118,5.784,26.456,1.531,39.823,2.818a47.724,47.724,0,0,1,21.451,7.53c3.328,2.177,6.5,4.828,10.371,5.751,4.564,1.09,9.458-.4,14.007.753"/><path class="j" d="M152.23,771.295c5,5.232,12.9,6.437,20.134,6.2s14.538-1.59,21.656-.274c6.927,1.279,13.137,5,19,8.907a30.585,30.585,0,0,0,7.322,4.028c5.195,1.688,10.853.3,16.047-1.387"/><path class="j" d="M153.825,772.344a18.483,18.483,0,0,0,9.857,7.542c4.451,1.3,9.2.5,13.8-.066q6.039-.739,12.128-.921a17.977,17.977,0,0,1,5.451.433,19.307,19.307,0,0,1,4.945,2.506l10.465,6.64c2.66,1.688,5.391,3.406,8.469,4.075,4.973,1.082,10.073-.7,14.848-2.466"/><path class="j" d="M157.392,777.181c2.549,3.925,7.386,5.817,12.05,6.2s9.328-.481,13.993-.854,9.585-.2,13.678,2.073a62.56,62.56,0,0,1,6.044,4.424,28.038,28.038,0,0,0,27.3,2.836"/><path class="j" d="M161.349,781.549c3.721,4.253,9.946,5.182,15.6,5.1s11.487-.851,16.814,1.033c4.114,1.456,7.546,4.382,11.534,6.154,7.4,3.29,16.117,2.291,23.652-.684"/><path class="j" d="M165.383,785.516c2.7,2.8,6.773,3.781,10.651,4.017s7.8-.141,11.631.511a21.922,21.922,0,0,1,6.644,2.276c2.11,1.129,4.027,2.6,6.166,3.673,7.1,3.562,15.649,2.306,23.247-.015"/><path class="j" d="M169.029,788.273c1.887,2.136,4.9,2.859,7.748,3.062s5.752.006,8.492.79a36.924,36.924,0,0,1,6.716,3.233,36.76,36.76,0,0,0,26.587,2.81"/><path class="j" d="M176.544,793.971c1.206.755,3.121.1,4.544.124,2.953.042,5.566,1.8,8.029,3.433s5.1,3.177,8.278,3.255"/><path class="j" d="M199.562,771.4a30.515,30.515,0,0,1,12.42,4.729c2.818,1.963,5.284,4.405,8.159,6.284s6.36,3.188,9.724,2.495"/></g><g transform="translate(0.5 778.5)"><rect class="k" width="375" height="34"/><rect class="l" width="134" height="5" rx="2.5" transform="translate(120.5 21)"/></g></g></svg>